<?xml version="1.0"?>
<svg xmlns="http://www.w3.org/2000/svg" id="Flat" viewBox="0 0 64 64" width="512" height="512"><g id="Color"><g><polygon points="35 61 29 61 30 49 34 49 35 61" style="fill: #f8664f"/><path d="M32,55V49H30L29,61h6l-.183-2.2A3.987,3.987,0,0,1,32,55Z" style="fill: #cc5144"/><path d="M32,49l10,2-1.57-2.094a1,1,0,0,1,.932-1.591L54,49l-7.323-5.695a1,1,0,0,1,.4-1.766L54,40l-2.657-1.992a1.776,1.776,0,0,1-.411-2.405L56,28H48.274a1.776,1.776,0,0,1-1.723-2.206L47,24,41.6,27.378a1,1,0,0,1-1.459-1.219L45,14l-3.612,1.445a1.774,1.774,0,0,1-2.171-.718L32,3,24,16l-5-2,4.864,12.159a1,1,0,0,1-1.459,1.219L17,24l.449,1.794A1.776,1.776,0,0,1,15.726,28H8l5.068,7.6a1.776,1.776,0,0,1-.411,2.405L10,40l7.072,1.572a1,1,0,0,1,.442,1.728L11,49l11.61-1.659a1,1,0,0,1,.941,1.59L22,51Z" style="fill: #f9e109"/><path d="M41.362,47.315,54,49l-8.064-2.566A20,20,0,0,1,32,27.376V3L24,16l-5-2,4.864,12.159a1,1,0,0,1-1.459,1.219L17,24l.449,1.794A1.776,1.776,0,0,1,15.726,28H8l5.068,7.6a1.776,1.776,0,0,1-.411,2.405L10,40l7.072,1.572a1,1,0,0,1,.442,1.728L11,49l11.61-1.659a1,1,0,0,1,.941,1.59L22,51l10-2,10,2-1.57-2.094A1,1,0,0,1,41.362,47.315Z" style="fill: #fcbc04"/><path d="M31.133,39.566A29.072,29.072,0,0,1,17,24h0l.449,1.794A1.776,1.776,0,0,1,15.726,28H8l5.068,7.6a1.776,1.776,0,0,1-.411,2.405L10,40l7.072,1.572a1,1,0,0,1,.442,1.728L11,49l11.61-1.659a1,1,0,0,1,.941,1.59L22,51l10-2V40.97a1.57,1.57,0,0,0-.867-1.4Z" style="fill: #e59730"/><path d="M32,49l1,.2V40.618l2.862-1.431,5.5,4.581a1,1,0,0,0,1.28-1.536l-4.825-4.021,2.406-1.2,6.633.981A.918.918,0,0,0,47,38a1,1,0,0,0,.145-1.989l-3.8-.563,7.949-3.975a1,1,0,0,0-.894-1.789l-7.3,3.652,1.757-2.8a1,1,0,0,0-1.7-1.062l-3.5,5.584L33,38.382V26.414l5.707-5.707a1,1,0,0,0-1.414-1.414L33,23.586V10a1,1,0,0,0-2,0V23.865l-4.36-3.633a1,1,0,0,0-1.28,1.536l5.64,4.7V38.382l-6.315-3.158-3.853-5.779a1,1,0,1,0-1.664,1.11l1.911,2.867-7.194-3.6a1,1,0,1,0-.894,1.789l7.7,3.849-3.831.547a1,1,0,0,0,.284,1.98l6.69-.956,2.353,1.177L21.36,42.232a1,1,0,1,0,1.28,1.536l5.5-4.581L31,40.618V49.2Z" style="fill: #f89c8d"/><path d="M19.577,29.114a29.1,29.1,0,0,0,5.013,5.969l-3.758-5.638A.987.987,0,0,0,19.577,29.114Z" style="fill: #f8664f"/><path d="M35.861,39.188c-.4-.542-.755-1.11-1.095-1.689L33,38.382V33.62a19.953,19.953,0,0,1-1-6.244V9a1,1,0,0,0-1,1V23.865l-4.36-3.633a1,1,0,0,0-1.28,1.536l5.64,4.7V38.382L24.842,35.3a29.066,29.066,0,0,0,6.291,4.263A1.57,1.57,0,0,1,32,40.97V49l1,.2V40.618Z" style="fill: #f8664f"/><path d="M31.133,39.566A29.066,29.066,0,0,1,24.842,35.3l-.157-.079-.095-.141a29.1,29.1,0,0,1-5.013-5.969.872.872,0,0,0-.132.054,1,1,0,0,0-.277,1.387l1.911,2.867-7.194-3.6a1,1,0,1,0-.894,1.789l7.7,3.849-3.831.547a1,1,0,0,0,.284,1.98l6.69-.956,2.353,1.177L21.36,42.232a1,1,0,1,0,1.28,1.536l5.5-4.581L31,40.618V49.2l1-.2V40.97A1.57,1.57,0,0,0,31.133,39.566Z" style="fill: #cc5144"/></g></g></svg>
